<?xml version="1.0" standalone="no"?>
<!DOCTYPE svg PUBLIC "-//W3C//DTD SVG 20010904//EN"
 "http://www.w3.org/TR/2001/REC-SVG-20010904/DTD/svg10.dtd">
<svg version="1.0" xmlns="http://www.w3.org/2000/svg"
 width="300.000000pt" height="300.000000pt" viewBox="0 0 300.000000 300.000000"
 preserveAspectRatio="xMidYMid meet">
<metadata>
Created by potrace 1.14, written by Peter Selinger 2001-2017
</metadata>
<g transform="translate(0.000000,300.000000) scale(0.100000,-0.100000)"
fill="#000000" stroke="none">
<path d="M1037 2269 c-36 -19 -40 -19 -57 -4 -23 21 -95 12 -125 -16 -29 -26
-98 -49 -117 -38 -22 12 -48 1 -41 -18 4 -10 0 -14 -13 -11 -17 3 -19 -2 -16
-41 2 -24 8 -55 13 -69 8 -22 13 -23 47 -17 20 3 47 13 59 21 29 19 31 18 26
-8 -3 -13 -25 -38 -49 -57 -46 -35 -55 -50 -28 -47 26 2 28 -22 3 -26 -12 -2
-25 -10 -29 -18 -4 -8 -14 -28 -21 -43 -7 -16 -18 -26 -26 -23 -8 4 -13 -3
-13 -18 0 -12 -3 -26 -7 -30 -5 -4 -8 -37 -8 -74 l0 -66 -34 -8 c-43 -12 -85
-2 -78 17 3 7 -1 19 -9 25 -8 7 -14 17 -14 22 0 5 -9 18 -20 30 -11 12 -20 36
-20 52 -1 29 -1 30 -15 12 -12 -16 -17 -17 -30 -6 -8 7 -25 10 -40 6 -14 -4
-25 -2 -25 4 0 13 -33 13 -64 -2 -32 -14 -42 -44 -23 -66 8 -9 22 -32 31 -49
17 -35 36 -44 36 -18 0 24 20 17 30 -10 6 -16 14 -23 25 -19 8 3 15 2 15 -4 0
-6 9 -8 20 -5 11 3 20 1 20 -5 0 -6 3 -17 6 -26 4 -10 1 -16 -9 -16 -8 0 -18
-7 -21 -16 -5 -12 -14 -15 -37 -10 -27 5 -30 4 -24 -14 4 -13 1 -22 -9 -26
-20 -8 -20 -24 0 -38 14 -11 13 -13 -4 -29 -18 -16 -20 -16 -48 13 -16 17 -39
35 -51 40 -18 7 -20 15 -16 47 5 35 2 41 -38 73 -27 21 -52 33 -67 32 -24 -2
-24 -1 -8 16 15 18 15 20 -4 37 -11 10 -20 13 -20 7 0 -20 -49 -13 -62 8 -7
11 -16 20 -20 20 -5 0 -8 -396 -8 -880 l0 -880 542 0 c524 0 541 1 525 18 -10
10 -17 28 -17 40 0 11 -8 25 -17 31 -17 9 -16 12 6 35 19 20 22 29 13 38 -18
18 -14 38 7 38 11 0 23 5 27 11 3 6 15 9 25 6 20 -5 44 16 35 32 -3 5 -15 7
-26 4 -24 -6 -26 13 -5 41 11 15 18 17 26 9 9 -9 18 -4 35 17 27 32 31 50 10
50 -28 0 -41 47 -27 97 7 26 6 33 -5 33 -8 0 -14 7 -14 15 0 8 5 15 10 15 6 0
10 12 9 28 l0 27 -16 -32 c-19 -38 -45 -44 -43 -10 4 43 0 67 -11 67 -7 0 -18
8 -25 18 -11 14 -16 15 -33 5 -17 -11 -22 -10 -31 6 -15 29 -12 41 9 41 17 0
19 7 18 44 -1 30 4 50 16 63 9 11 14 23 10 27 -4 4 -15 -3 -24 -15 -22 -30
-49 -19 -49 21 0 25 4 29 23 27 20 -2 22 2 22 43 0 53 23 66 45 25 7 -14 19
-25 27 -25 7 0 13 -9 13 -19 0 -10 7 -22 16 -25 22 -9 24 -8 24 9 0 8 -4 15
-9 15 -5 0 -11 10 -15 23 -4 15 0 27 14 39 41 34 14 39 -31 6 -26 -19 -31 -20
-39 -8 -5 8 -10 18 -10 21 0 12 46 54 73 66 15 7 27 21 27 31 0 9 7 27 15 39
8 12 13 27 10 35 -7 19 53 109 76 115 25 7 24 40 -1 48 -11 4 -19 12 -18 18 3
14 -99 120 -125 130 -9 3 -17 15 -17 26 0 11 -10 39 -21 61 -12 23 -24 61 -27
86 -4 40 -3 44 13 38 16 -6 17 -3 12 24 -6 31 6 45 17 20 3 -8 16 1 36 25 22
26 40 37 59 37 15 0 33 6 39 12 10 10 15 10 20 1 4 -6 18 -13 32 -14 23 -4 25
-9 31 -69 7 -75 23 -139 41 -162 29 -37 102 -88 141 -99 23 -6 47 -15 54 -21
8 -6 19 -5 33 2 12 6 34 9 49 5 19 -4 32 -1 41 10 7 8 20 15 30 15 13 0 17 6
13 20 -4 13 1 22 13 27 28 10 44 29 44 51 0 10 7 39 16 65 12 34 21 47 35 47
11 0 22 7 25 15 5 13 10 13 33 -3 14 -9 43 -26 64 -36 20 -11 37 -23 37 -28 0
-4 7 -8 15 -8 8 0 15 -3 15 -7 0 -11 78 -74 93 -77 7 -1 18 -5 25 -10 18 -11
72 3 72 19 0 7 12 16 26 19 25 7 25 7 9 32 -22 33 -4 59 19 28 14 -18 15 -18
12 8 -3 30 -34 71 -46 63 -14 -9 -40 7 -40 24 0 25 -25 57 -34 43 -4 -7 -23
-3 -59 13 -28 14 -64 25 -79 25 -17 0 -29 7 -33 19 -6 21 -51 30 -160 35 -33
1 -70 8 -82 14 -12 7 -29 12 -38 12 -14 0 -14 -2 1 -25 9 -14 12 -25 8 -25
-14 1 -49 33 -57 53 -7 19 -61 24 -72 7 -9 -14 -25 -12 -25 3 0 6 -28 20 -62
30 -35 11 -81 28 -104 39 -23 12 -54 21 -70 22 -19 1 -30 7 -32 19 -2 9 1 17
7 17 21 0 10 20 -19 35 -16 9 -30 23 -30 31 0 12 -7 15 -25 12 -32 -7 -42 8
-21 31 9 10 16 21 16 25 0 16 55 57 72 52 13 -3 23 5 33 25 17 32 30 37 39 14
8 -21 36 -19 36 4 0 26 -22 41 -48 34 -16 -4 -27 0 -36 12 -11 15 -22 17 -59
12 -25 -4 -47 -3 -49 2 -2 4 -30 11 -63 14 -48 5 -67 2 -98 -14z m248 -28 c3
-5 2 -12 -3 -15 -12 -7 -52 4 -52 15 0 12 47 12 55 0z m311 -448 c46 -34 44
-68 -4 -69 -36 -1 -50 12 -33 29 8 8 6 16 -5 28 -9 10 -13 23 -9 28 9 15 12
14 51 -16z m218 -58 c-5 -19 -2 -25 10 -25 21 0 21 -26 -1 -34 -21 -9 -39 11
-48 52 -6 30 -5 32 19 32 23 0 26 -3 20 -25z m-959 -955 c3 -5 1 -10 -4 -10
-6 0 -11 5 -11 10 0 6 2 10 4 10 3 0 8 -4 11 -10z m82 -66 c6 -17 -15 -64 -29
-64 -14 0 -21 28 -14 55 7 28 33 34 43 9z m-477 -494 c0 -5 -2 -10 -4 -10 -3
0 -8 5 -11 10 -3 6 -1 10 4 10 6 0 11 -4 11 -10z m78 -31 c-2 -6 -8 -10 -13
-10 -5 0 -11 4 -13 10 -2 6 4 11 13 11 9 0 15 -5 13 -11z m393 -98 c-8 -5 -21
-7 -29 -3 -12 4 -12 7 4 19 12 9 21 10 28 3 8 -8 7 -13 -3 -19z"/>
<path d="M2133 2265 c-17 -14 -17 -14 2 -15 22 0 51 -51 42 -73 -3 -7 1 -21 9
-32 13 -18 14 -17 14 8 0 15 6 30 13 33 7 2 13 20 14 38 1 29 -2 32 -23 28
-13 -2 -24 0 -24 6 0 17 -27 21 -47 7z"/>
<path d="M1402 2258 c6 -18 28 -21 28 -4 0 9 -7 16 -16 16 -9 0 -14 -5 -12
-12z"/>
<path d="M1428 2214 c-10 -20 -9 -27 2 -34 18 -11 50 16 50 42 0 28 -38 23
-52 -8z"/>
<path d="M1 1845 c0 -38 3 -63 6 -55 2 8 7 22 10 30 8 19 3 61 -8 80 -5 10 -8
-11 -8 -55z"/>
<path d="M40 1781 c0 -26 29 -49 40 -32 4 7 5 22 3 32 -7 25 -43 25 -43 0z"/>
<path d="M290 1610 c0 -5 5 -10 10 -10 6 0 10 5 10 10 0 6 -4 10 -10 10 -5 0
-10 -4 -10 -10z"/>
<path d="M290 1545 c0 -8 5 -15 10 -15 6 0 10 7 10 15 0 8 -4 15 -10 15 -5 0
-10 -7 -10 -15z"/>
<path d="M1937 1315 c-6 -35 -4 -42 26 -67 34 -29 52 -34 62 -18 3 6 15 10 26
10 28 0 22 43 -6 48 -11 2 -27 11 -36 18 -9 8 -20 14 -25 13 -21 -4 -33 2 -36
19 -2 9 -7 -1 -11 -23z"/>
<path d="M1782 1154 c2 -15 9 -29 16 -32 10 -3 13 4 10 24 -2 15 -9 29 -16 32
-10 3 -13 -4 -10 -24z"/>
<path d="M1118 798 c-2 -13 -8 -23 -15 -23 -6 0 -15 -4 -20 -8 -8 -9 63 -1 78
9 14 9 10 31 -7 38 -26 10 -32 7 -36 -16z"/>
<path d="M1085 160 c3 -5 10 -10 16 -10 5 0 9 5 9 10 0 6 -7 10 -16 10 -8 0
-12 -4 -9 -10z"/>
<path d="M1099 54 c0 -10 -2 -27 -4 -36 -3 -15 4 -18 35 -18 34 0 38 3 42 30
5 36 -4 46 -22 25 -11 -14 -15 -14 -31 1 -18 16 -19 16 -20 -2z"/>
</g>
</svg>
